<svg id="svg" version="1.1" width="400" height="400" viewBox="0 0 400 400" xmlns="http://www.w3.org/2000/svg" xmlns:xlink="http://www.w3.org/1999/xlink" ><g id="svgg"><path id="path0" d="M196.783 1.820 C 196.358 2.332,196.384 2.556,196.934 3.106 C 197.872 4.044,199.262 2.838,198.417 1.820 C 197.769 1.040,197.431 1.040,196.783 1.820 M102.800 193.176 C 102.800 193.383,103.008 193.681,103.262 193.838 C 103.548 194.015,103.615 193.948,103.439 193.663 C 103.224 193.315,126.988 193.177,199.877 193.100 L 296.600 192.998 199.700 192.899 C 139.348 192.837,102.800 192.942,102.800 193.176 M205.422 397.564 C 205.040 398.183,205.648 399.200,206.400 399.200 C 207.152 399.200,207.760 398.183,207.378 397.564 C 207.254 397.364,206.814 397.200,206.400 397.200 C 205.986 397.200,205.546 397.364,205.422 397.564 " stroke="none" fill="#000000" fill-rule="evenodd"></path><path id="path1" d="" stroke="none" fill="#555500" fill-rule="evenodd"></path><path id="path2" d="" stroke="none" fill="#ff0000" fill-rule="evenodd"></path><path id="path3" d="M197.665 34.700 C 196.975 35.525,196.408 36.397,196.405 36.638 C 196.402 36.879,196.040 37.402,195.600 37.800 C 195.160 38.198,194.800 38.689,194.800 38.890 C 194.800 39.091,194.260 40.041,193.600 41.000 C 192.940 41.959,192.400 42.937,192.400 43.172 C 192.400 43.407,192.250 43.600,192.068 43.600 C 191.885 43.600,191.485 44.095,191.180 44.700 C 190.874 45.305,190.124 46.552,189.512 47.472 C 188.901 48.392,188.400 49.337,188.400 49.572 C 188.400 49.807,188.250 50.000,188.068 50.000 C 187.885 50.000,187.485 50.495,187.180 51.100 C 186.874 51.705,186.124 52.952,185.512 53.872 C 184.901 54.792,184.400 55.737,184.400 55.972 C 184.400 56.207,184.241 56.400,184.047 56.400 C 183.852 56.400,183.593 56.715,183.471 57.100 C 183.183 58.009,181.988 59.953,181.100 60.958 C 180.715 61.394,180.400 61.987,180.400 62.275 C 180.400 62.564,180.241 62.800,180.047 62.800 C 179.852 62.800,179.593 63.115,179.471 63.500 C 179.183 64.409,177.988 66.353,177.100 67.358 C 176.715 67.794,176.400 68.309,176.400 68.503 C 176.400 68.697,175.860 69.641,175.200 70.600 C 174.540 71.559,174.000 72.537,174.000 72.772 C 174.000 73.007,173.841 73.200,173.647 73.200 C 173.452 73.200,173.193 73.515,173.071 73.900 C 172.783 74.809,171.588 76.753,170.700 77.758 C 170.315 78.194,170.000 78.787,170.000 79.075 C 170.000 79.364,169.820 79.600,169.600 79.600 C 169.380 79.600,169.200 79.790,169.200 80.022 C 169.200 80.254,168.480 81.504,167.600 82.800 C 166.720 84.096,166.000 85.264,166.000 85.395 C 166.000 85.526,165.640 86.020,165.200 86.492 C 164.760 86.964,164.400 87.587,164.400 87.875 C 164.400 88.164,164.220 88.400,164.000 88.400 C 163.780 88.400,163.600 88.590,163.600 88.822 C 163.600 89.054,162.880 90.304,162.000 91.600 C 161.120 92.896,160.400 94.069,160.400 94.206 C 160.400 94.343,159.860 95.241,159.200 96.200 C 158.540 97.159,158.000 98.137,158.000 98.372 C 158.000 98.607,157.820 98.800,157.600 98.800 C 157.380 98.800,157.200 99.045,157.200 99.344 C 157.200 99.643,156.525 100.680,155.700 101.649 C 154.077 103.554,153.200 104.944,153.200 105.610 C 153.200 105.841,152.120 107.637,150.800 109.600 C 149.480 111.563,148.400 113.274,148.400 113.401 C 148.400 113.529,148.040 114.020,147.600 114.492 C 147.160 114.964,146.800 115.587,146.800 115.875 C 146.800 116.164,146.641 116.400,146.447 116.400 C 146.252 116.400,145.993 116.715,145.871 117.100 C 145.583 118.009,144.388 119.953,143.500 120.958 C 143.115 121.394,142.800 121.987,142.800 122.275 C 142.800 122.564,142.641 122.800,142.447 122.800 C 142.252 122.800,141.993 123.115,141.871 123.500 C 141.583 124.409,140.388 126.353,139.500 127.358 C 139.115 127.794,138.800 128.309,138.800 128.503 C 138.800 128.697,138.260 129.641,137.600 130.600 C 136.940 131.559,136.400 132.459,136.400 132.600 C 136.400 132.741,135.860 133.641,135.200 134.600 C 134.540 135.559,134.000 136.454,134.000 136.589 C 134.000 136.723,133.640 137.220,133.200 137.692 C 132.760 138.164,132.400 138.787,132.400 139.075 C 132.400 139.364,132.241 139.600,132.047 139.600 C 131.852 139.600,131.593 139.915,131.471 140.300 C 131.183 141.209,129.988 143.153,129.100 144.158 C 128.715 144.594,128.400 145.109,128.400 145.303 C 128.400 145.497,127.860 146.441,127.200 147.400 C 126.540 148.359,126.000 149.254,126.000 149.389 C 126.000 149.523,125.640 150.020,125.200 150.492 C 124.760 150.964,124.400 151.587,124.400 151.875 C 124.400 152.164,124.220 152.400,124.000 152.400 C 123.780 152.400,123.600 152.590,123.600 152.822 C 123.600 153.054,122.880 154.304,122.000 155.600 C 121.120 156.896,120.400 158.064,120.400 158.195 C 120.400 158.326,120.040 158.820,119.600 159.292 C 119.160 159.764,118.800 160.387,118.800 160.675 C 118.800 160.964,118.620 161.200,118.400 161.200 C 118.180 161.200,118.000 161.390,118.000 161.622 C 118.000 161.854,117.280 163.104,116.400 164.400 C 115.520 165.696,114.800 166.946,114.800 167.178 C 114.800 167.410,114.650 167.600,114.468 167.600 C 114.285 167.600,113.880 168.095,113.568 168.700 C 113.255 169.305,112.685 170.149,112.300 170.575 C 111.915 171.002,111.600 171.587,111.600 171.875 C 111.600 172.164,111.441 172.400,111.247 172.400 C 111.052 172.400,110.793 172.715,110.671 173.100 C 110.383 174.009,109.188 175.953,108.300 176.958 C 107.915 177.394,107.600 177.909,107.600 178.103 C 107.600 178.297,107.089 179.208,106.465 180.128 C 105.841 181.048,105.077 182.385,104.768 183.100 C 104.458 183.815,104.097 184.400,103.965 184.400 C 103.834 184.400,103.295 185.255,102.768 186.300 C 102.242 187.345,101.709 188.290,101.585 188.400 C 101.460 188.510,101.054 189.255,100.681 190.056 C 100.309 190.858,99.733 191.617,99.402 191.744 C 99.071 191.871,98.800 192.251,98.800 192.587 C 98.800 192.924,98.641 193.200,98.447 193.200 C 98.252 193.200,97.993 193.515,97.871 193.900 C 97.583 194.809,96.388 196.753,95.500 197.758 C 95.115 198.194,94.800 198.787,94.800 199.075 C 94.800 199.364,94.641 199.600,94.447 199.600 C 94.252 199.600,93.993 199.915,93.871 200.300 C 93.583 201.209,92.388 203.153,91.500 204.158 C 91.115 204.594,90.800 205.187,90.800 205.475 C 90.800 205.764,90.620 206.000,90.400 206.000 C 90.180 206.000,90.000 206.190,90.000 206.422 C 90.000 206.654,89.280 207.904,88.400 209.200 C 87.520 210.496,86.800 211.664,86.800 211.795 C 86.800 211.926,86.440 212.420,86.000 212.892 C 85.560 213.364,85.200 213.987,85.200 214.275 C 85.200 214.564,85.020 214.800,84.800 214.800 C 84.580 214.800,84.400 214.990,84.400 215.222 C 84.400 215.454,83.680 216.704,82.800 218.000 C 81.920 219.296,81.200 220.546,81.200 220.778 C 81.200 221.010,81.041 221.200,80.847 221.200 C 80.652 221.200,80.393 221.515,80.271 221.900 C 79.983 222.809,78.788 224.753,77.900 225.758 C 77.515 226.194,77.200 226.787,77.200 227.075 C 77.200 227.364,77.041 227.600,76.847 227.600 C 76.652 227.600,76.390 227.915,76.264 228.300 C 76.002 229.100,74.268 232.088,73.153 233.662 C 72.739 234.246,72.400 234.838,72.400 234.978 C 72.400 235.119,72.040 235.620,71.600 236.092 C 71.160 236.564,70.800 237.187,70.800 237.475 C 70.800 237.764,70.620 238.000,70.400 238.000 C 70.180 238.000,70.000 238.190,70.000 238.422 C 70.000 238.654,69.280 239.904,68.400 241.200 C 67.520 242.496,66.800 243.718,66.800 243.916 C 66.800 244.114,66.440 244.602,66.000 245.000 C 65.560 245.398,65.200 245.889,65.200 246.090 C 65.200 246.291,64.660 247.241,64.000 248.200 C 63.340 249.159,62.800 250.054,62.800 250.189 C 62.800 250.323,62.440 250.820,62.000 251.292 C 61.560 251.764,61.200 252.387,61.200 252.675 C 61.200 252.964,61.020 253.200,60.800 253.200 C 60.580 253.200,60.400 253.390,60.400 253.622 C 60.400 253.854,59.680 255.104,58.800 256.400 C 57.920 257.696,57.200 258.918,57.200 259.116 C 57.200 259.314,56.840 259.802,56.400 260.200 C 55.960 260.598,55.600 261.089,55.600 261.290 C 55.600 261.491,55.060 262.441,54.400 263.400 C 53.740 264.359,53.200 265.254,53.200 265.389 C 53.200 265.523,52.840 266.020,52.400 266.492 C 51.960 266.964,51.600 267.587,51.600 267.875 C 51.600 268.164,51.441 268.400,51.247 268.400 C 51.052 268.400,50.793 268.715,50.671 269.100 C 50.383 270.009,49.188 271.953,48.300 272.958 C 47.915 273.394,47.600 273.909,47.600 274.103 C 47.600 274.297,47.060 275.241,46.400 276.200 C 45.740 277.159,45.200 278.137,45.200 278.372 C 45.200 278.607,45.041 278.800,44.847 278.800 C 44.652 278.800,44.393 279.115,44.271 279.500 C 43.983 280.409,42.788 282.353,41.900 283.358 C 41.515 283.794,41.200 284.309,41.200 284.503 C 41.200 284.697,40.660 285.641,40.000 286.600 C 39.340 287.559,38.800 288.455,38.800 288.590 C 38.800 288.725,37.900 290.170,36.800 291.800 C 35.700 293.430,34.800 294.924,34.800 295.120 C 34.800 295.316,34.440 295.802,34.000 296.200 C 33.560 296.598,33.200 297.089,33.200 297.290 C 33.200 297.491,32.660 298.441,32.000 299.400 C 31.340 300.359,30.800 301.254,30.800 301.389 C 30.800 301.523,30.440 302.020,30.000 302.492 C 29.560 302.964,29.200 303.587,29.200 303.875 C 29.200 304.164,29.041 304.400,28.847 304.400 C 28.652 304.400,28.393 304.715,28.271 305.100 C 27.983 306.009,26.788 307.953,25.900 308.958 C 25.515 309.394,25.200 309.987,25.200 310.275 C 25.200 310.564,25.041 310.800,24.847 310.800 C 24.652 310.800,24.393 311.115,24.271 311.500 C 23.983 312.409,22.788 314.353,21.900 315.358 C 21.515 315.794,21.200 316.387,21.200 316.675 C 21.200 316.964,21.041 317.200,20.847 317.200 C 20.652 317.200,20.393 317.515,20.271 317.900 C 19.983 318.809,18.788 320.753,17.900 321.758 C 17.515 322.194,17.200 322.787,17.200 323.075 C 17.200 323.364,17.041 323.600,16.847 323.600 C 16.652 323.600,16.393 323.915,16.271 324.300 C 15.983 325.209,14.788 327.153,13.900 328.158 C 13.515 328.594,13.200 329.187,13.200 329.475 C 13.200 329.764,13.041 330.000,12.847 330.000 C 12.652 330.000,12.393 330.315,12.271 330.700 C 11.983 331.609,10.788 333.553,9.900 334.558 C 9.515 334.994,9.200 335.587,9.200 335.875 C 9.200 336.164,9.041 336.400,8.847 336.400 C 8.652 336.400,8.393 336.715,8.271 337.100 C 7.983 338.009,6.788 339.953,5.900 340.958 C 5.515 341.394,5.200 341.909,5.200 342.103 C 5.200 342.297,4.660 343.241,4.000 344.200 C 3.340 345.159,2.800 346.054,2.800 346.189 C 2.800 346.323,2.440 346.820,2.000 347.292 C 0.821 348.557,0.935 350.551,2.219 351.136 C 3.740 351.829,198.437 351.803,199.130 351.110 C 199.516 350.724,199.786 350.724,200.401 351.108 C 201.011 351.488,222.723 351.596,298.970 351.597 L 396.758 351.598 397.879 350.626 C 398.995 349.660,398.997 349.649,398.275 348.527 C 397.877 347.907,397.451 347.085,397.329 346.700 C 397.207 346.315,396.948 346.000,396.753 346.000 C 396.559 346.000,396.400 345.764,396.400 345.475 C 396.400 345.187,396.040 344.564,395.600 344.092 C 395.160 343.620,394.800 343.126,394.800 342.995 C 394.800 342.864,394.080 341.696,393.200 340.400 C 392.320 339.104,391.600 337.854,391.600 337.622 C 391.600 337.390,391.420 337.200,391.200 337.200 C 390.980 337.200,390.800 336.964,390.800 336.675 C 390.800 336.387,390.485 335.794,390.100 335.358 C 389.212 334.353,388.017 332.409,387.729 331.500 C 387.607 331.115,387.348 330.800,387.153 330.800 C 386.959 330.800,386.800 330.607,386.800 330.372 C 386.800 330.137,386.260 329.159,385.600 328.200 C 384.940 327.241,384.400 326.297,384.400 326.103 C 384.400 325.909,384.085 325.394,383.700 324.958 C 382.812 323.953,381.617 322.009,381.329 321.100 C 381.207 320.715,380.948 320.400,380.753 320.400 C 380.559 320.400,380.400 320.164,380.400 319.875 C 380.400 319.587,380.085 318.994,379.700 318.558 C 378.812 317.553,377.617 315.609,377.329 314.700 C 377.207 314.315,376.948 314.000,376.753 314.000 C 376.559 314.000,376.400 313.764,376.400 313.475 C 376.400 313.187,376.085 312.593,375.700 312.155 C 375.043 311.408,374.741 310.935,373.500 308.700 C 373.225 308.205,372.910 307.710,372.800 307.600 C 372.690 307.490,372.375 306.995,372.100 306.500 C 371.825 306.005,371.375 305.195,371.100 304.700 C 370.825 304.205,370.510 303.710,370.400 303.600 C 370.004 303.204,368.746 300.985,368.529 300.300 C 368.407 299.915,368.148 299.600,367.953 299.600 C 367.759 299.600,367.600 299.410,367.600 299.178 C 367.600 298.946,366.880 297.696,366.000 296.400 C 365.120 295.104,364.400 293.854,364.400 293.622 C 364.400 293.390,364.220 293.200,364.000 293.200 C 363.780 293.200,363.600 292.964,363.600 292.675 C 363.600 292.387,363.240 291.764,362.800 291.292 C 362.360 290.820,362.000 290.329,362.000 290.201 C 362.000 290.074,360.920 288.363,359.600 286.400 C 358.280 284.437,357.200 282.644,357.200 282.415 C 357.200 282.187,357.020 282.000,356.800 282.000 C 356.580 282.000,356.400 281.764,356.400 281.475 C 356.400 281.187,356.040 280.564,355.600 280.092 C 355.160 279.620,354.800 279.126,354.800 278.995 C 354.800 278.864,354.080 277.696,353.200 276.400 C 352.320 275.104,351.600 273.854,351.600 273.622 C 351.600 273.390,351.420 273.200,351.200 273.200 C 350.980 273.200,350.800 272.964,350.800 272.675 C 350.800 272.387,350.485 271.794,350.100 271.358 C 349.212 270.353,348.017 268.409,347.729 267.500 C 347.607 267.115,347.348 266.800,347.153 266.800 C 346.959 266.800,346.800 266.564,346.800 266.275 C 346.800 265.987,346.485 265.394,346.100 264.958 C 345.212 263.953,344.017 262.009,343.729 261.100 C 343.607 260.715,343.348 260.400,343.153 260.400 C 342.959 260.400,342.800 260.164,342.800 259.875 C 342.800 259.587,342.485 258.994,342.100 258.558 C 341.212 257.553,340.017 255.609,339.729 254.700 C 339.607 254.315,339.348 254.000,339.153 254.000 C 338.959 254.000,338.800 253.764,338.800 253.475 C 338.800 253.187,338.485 252.594,338.100 252.158 C 337.212 251.153,336.017 249.209,335.729 248.300 C 335.607 247.915,335.348 247.600,335.153 247.600 C 334.959 247.600,334.800 247.412,334.800 247.182 C 334.800 246.952,333.900 245.430,332.800 243.800 C 331.700 242.170,330.800 240.730,330.800 240.600 C 330.800 240.470,329.900 239.030,328.800 237.400 C 327.700 235.770,326.800 234.328,326.800 234.196 C 326.800 234.064,326.080 232.896,325.200 231.600 C 324.320 230.304,323.600 229.054,323.600 228.822 C 323.600 228.590,323.420 228.400,323.200 228.400 C 322.980 228.400,322.800 228.164,322.800 227.875 C 322.800 227.587,322.440 226.964,322.000 226.492 C 321.560 226.020,321.200 225.523,321.200 225.389 C 321.200 225.254,320.699 224.392,320.088 223.472 C 319.476 222.552,318.726 221.305,318.420 220.700 C 318.115 220.095,317.715 219.600,317.532 219.600 C 317.350 219.600,317.200 219.407,317.200 219.172 C 317.200 218.937,316.699 217.992,316.088 217.072 C 315.476 216.152,314.726 214.905,314.420 214.300 C 314.115 213.695,313.715 213.200,313.532 213.200 C 313.350 213.200,313.200 213.007,313.200 212.772 C 313.200 212.537,312.660 211.559,312.000 210.600 C 311.340 209.641,310.800 208.697,310.800 208.503 C 310.800 208.309,310.485 207.794,310.100 207.358 C 309.212 206.353,308.017 204.409,307.729 203.500 C 307.607 203.115,307.348 202.800,307.153 202.800 C 306.959 202.800,306.800 202.564,306.800 202.275 C 306.800 201.987,306.440 201.364,306.000 200.892 C 305.560 200.420,305.200 199.919,305.200 199.778 C 305.200 199.638,304.861 199.046,304.447 198.462 C 304.033 197.878,303.330 196.750,302.884 195.955 C 302.439 195.160,301.833 194.082,301.538 193.559 C 301.242 193.036,300.721 192.337,300.380 192.004 C 300.038 191.672,299.449 190.733,299.070 189.919 C 298.690 189.104,298.160 188.198,297.890 187.906 C 297.212 187.172,295.996 185.143,295.729 184.300 C 295.607 183.915,295.348 183.600,295.153 183.600 C 294.959 183.600,294.800 183.407,294.800 183.172 C 294.800 182.937,294.260 181.959,293.600 181.000 C 292.940 180.041,292.400 179.097,292.400 178.903 C 292.400 178.709,292.085 178.194,291.700 177.758 C 290.812 176.753,289.617 174.809,289.329 173.900 C 289.207 173.515,288.948 173.200,288.753 173.200 C 288.559 173.200,288.400 172.964,288.400 172.675 C 288.400 172.387,288.085 171.794,287.700 171.358 C 286.812 170.353,285.617 168.409,285.329 167.500 C 285.207 167.115,284.948 166.800,284.753 166.800 C 284.559 166.800,284.400 166.564,284.400 166.275 C 284.400 165.987,284.040 165.364,283.600 164.892 C 283.160 164.420,282.800 163.926,282.800 163.795 C 282.800 163.664,282.080 162.496,281.200 161.200 C 280.320 159.904,279.600 158.654,279.600 158.422 C 279.600 158.190,279.420 158.000,279.200 158.000 C 278.980 158.000,278.800 157.764,278.800 157.475 C 278.800 157.187,278.440 156.564,278.000 156.092 C 277.560 155.620,277.200 155.126,277.200 154.995 C 277.200 154.864,276.480 153.696,275.600 152.400 C 274.720 151.104,274.000 149.854,274.000 149.622 C 274.000 149.390,273.820 149.200,273.600 149.200 C 273.380 149.200,273.200 148.964,273.200 148.675 C 273.200 148.387,272.840 147.764,272.400 147.292 C 271.960 146.820,271.600 146.328,271.600 146.199 C 271.600 146.070,270.700 144.630,269.600 143.000 C 268.500 141.370,267.600 139.925,267.600 139.790 C 267.600 139.655,267.099 138.792,266.488 137.872 C 265.876 136.952,265.126 135.705,264.820 135.100 C 264.515 134.495,264.115 134.000,263.932 134.000 C 263.750 134.000,263.600 133.807,263.600 133.572 C 263.600 133.337,263.060 132.359,262.400 131.400 C 261.740 130.441,261.200 129.541,261.200 129.400 C 261.200 129.259,260.699 128.392,260.088 127.472 C 259.476 126.552,258.726 125.305,258.420 124.700 C 258.115 124.095,257.715 123.600,257.532 123.600 C 257.350 123.600,257.200 123.407,257.200 123.172 C 257.200 122.937,256.660 121.959,256.000 121.000 C 255.340 120.041,254.800 119.097,254.800 118.903 C 254.800 118.709,254.485 118.194,254.100 117.758 C 253.212 116.753,252.017 114.809,251.729 113.900 C 251.607 113.515,251.348 113.200,251.153 113.200 C 250.959 113.200,250.800 113.007,250.800 112.772 C 250.800 112.387,248.582 108.891,248.026 108.400 C 247.688 108.101,246.000 104.773,246.000 104.405 C 246.000 104.229,245.460 103.507,244.800 102.800 C 244.140 102.093,243.600 101.264,243.600 100.958 C 243.600 100.651,243.441 100.400,243.247 100.400 C 243.052 100.400,242.793 100.085,242.671 99.700 C 242.454 99.015,241.196 96.796,240.800 96.400 C 240.404 96.004,239.146 93.785,238.929 93.100 C 238.807 92.715,238.548 92.400,238.353 92.400 C 238.159 92.400,238.000 92.207,238.000 91.972 C 238.000 91.737,237.460 90.759,236.800 89.800 C 236.140 88.841,235.600 87.943,235.600 87.806 C 235.600 87.669,234.880 86.496,234.000 85.200 C 233.120 83.904,232.400 82.654,232.400 82.422 C 232.400 82.190,232.250 82.000,232.068 82.000 C 231.885 82.000,231.480 81.505,231.168 80.900 C 230.855 80.295,230.285 79.451,229.900 79.025 C 229.515 78.598,229.200 78.013,229.200 77.725 C 229.200 77.436,229.020 77.200,228.800 77.200 C 228.580 77.200,228.400 76.964,228.400 76.675 C 228.400 76.387,228.040 75.764,227.600 75.292 C 227.160 74.820,226.800 74.323,226.800 74.189 C 226.800 74.054,226.260 73.159,225.600 72.200 C 224.940 71.241,224.400 70.297,224.400 70.103 C 224.400 69.909,224.085 69.394,223.700 68.958 C 222.812 67.953,221.617 66.009,221.329 65.100 C 221.207 64.715,220.948 64.400,220.753 64.400 C 220.559 64.400,220.400 64.210,220.400 63.978 C 220.400 63.746,219.680 62.496,218.800 61.200 C 217.920 59.904,217.200 58.654,217.200 58.422 C 217.200 58.190,217.050 58.000,216.868 58.000 C 216.685 58.000,216.280 57.505,215.968 56.900 C 215.656 56.295,215.299 55.710,215.174 55.600 C 214.619 55.111,212.400 51.614,212.400 51.228 C 212.400 50.993,212.220 50.800,212.000 50.800 C 211.780 50.800,211.600 50.603,211.600 50.362 C 211.600 50.121,211.261 49.446,210.847 48.862 C 210.433 48.278,209.730 47.150,209.284 46.355 C 207.582 43.314,207.394 42.994,207.200 42.800 C 207.013 42.613,206.478 41.702,205.438 39.800 C 205.197 39.360,204.908 38.910,204.795 38.800 C 204.682 38.690,204.158 37.745,203.632 36.700 C 203.105 35.655,202.544 34.800,202.384 34.800 C 202.224 34.800,201.999 34.440,201.884 34.000 C 201.501 32.535,199.151 32.925,197.665 34.700 M297.200 192.628 C 297.200 192.753,296.660 193.641,296.000 194.600 C 295.340 195.559,294.800 196.509,294.800 196.710 C 294.800 196.911,294.440 197.402,294.000 197.800 C 293.560 198.198,293.200 198.689,293.200 198.890 C 293.200 199.091,292.660 200.041,292.000 201.000 C 291.340 201.959,290.800 202.854,290.800 202.989 C 290.800 203.123,290.440 203.620,290.000 204.092 C 289.560 204.564,289.200 205.187,289.200 205.475 C 289.200 205.764,289.041 206.000,288.847 206.000 C 288.652 206.000,288.393 206.315,288.271 206.700 C 287.983 207.609,286.788 209.553,285.900 210.558 C 285.515 210.994,285.200 211.587,285.200 211.875 C 285.200 212.164,285.041 212.400,284.847 212.400 C 284.652 212.400,284.393 212.715,284.271 213.100 C 283.983 214.009,282.788 215.953,281.900 216.958 C 281.515 217.394,281.200 217.987,281.200 218.275 C 281.200 218.564,281.041 218.800,280.847 218.800 C 280.652 218.800,280.393 219.115,280.271 219.500 C 279.983 220.409,278.788 222.353,277.900 223.358 C 277.515 223.794,277.200 224.309,277.200 224.503 C 277.200 224.697,276.660 225.641,276.000 226.600 C 275.340 227.559,274.800 228.509,274.800 228.710 C 274.800 228.911,274.440 229.402,274.000 229.800 C 273.560 230.198,273.200 230.689,273.200 230.890 C 273.200 231.091,272.660 232.041,272.000 233.000 C 271.340 233.959,270.800 234.937,270.800 235.172 C 270.800 235.407,270.650 235.600,270.468 235.600 C 270.285 235.600,269.885 236.095,269.580 236.700 C 269.274 237.305,268.524 238.552,267.912 239.472 C 267.301 240.392,266.800 241.254,266.800 241.389 C 266.800 241.523,266.440 242.020,266.000 242.492 C 265.560 242.964,265.200 243.587,265.200 243.875 C 265.200 244.164,265.041 244.400,264.847 244.400 C 264.652 244.400,264.393 244.715,264.271 245.100 C 263.983 246.009,262.788 247.953,261.900 248.958 C 261.515 249.394,261.200 249.987,261.200 250.275 C 261.200 250.564,261.041 250.800,260.847 250.800 C 260.652 250.800,260.393 251.115,260.271 251.500 C 259.983 252.409,258.788 254.353,257.900 255.358 C 257.515 255.794,257.200 256.387,257.200 256.675 C 257.200 256.964,257.041 257.200,256.847 257.200 C 256.652 257.200,256.393 257.515,256.271 257.900 C 255.983 258.809,254.788 260.753,253.900 261.758 C 253.515 262.194,253.200 262.787,253.200 263.075 C 253.200 263.364,253.041 263.600,252.847 263.600 C 252.652 263.600,252.393 263.915,252.271 264.300 C 251.983 265.209,250.788 267.153,249.900 268.158 C 249.515 268.594,249.200 269.187,249.200 269.475 C 249.200 269.764,249.041 270.000,248.847 270.000 C 248.652 270.000,248.393 270.315,248.271 270.700 C 247.983 271.609,246.788 273.553,245.900 274.558 C 245.515 274.994,245.200 275.509,245.200 275.703 C 245.200 275.897,244.660 276.841,244.000 277.800 C 243.340 278.759,242.800 279.655,242.800 279.790 C 242.800 279.925,241.900 281.370,240.800 283.000 C 239.700 284.630,238.800 286.070,238.800 286.200 C 238.800 286.330,237.900 287.770,236.800 289.400 C 235.700 291.030,234.800 292.470,234.800 292.599 C 234.800 292.728,234.440 293.220,234.000 293.692 C 233.560 294.164,233.200 294.787,233.200 295.075 C 233.200 295.364,233.041 295.600,232.847 295.600 C 232.652 295.600,232.393 295.915,232.271 296.300 C 231.983 297.209,230.788 299.153,229.900 300.158 C 229.515 300.594,229.200 301.187,229.200 301.475 C 229.200 301.764,229.020 302.000,228.800 302.000 C 228.580 302.000,228.400 302.190,228.400 302.422 C 228.400 302.654,227.680 303.904,226.800 305.200 C 225.920 306.496,225.200 307.746,225.200 307.978 C 225.200 308.210,225.020 308.400,224.800 308.400 C 224.580 308.400,224.400 308.590,224.400 308.822 C 224.400 309.054,223.680 310.304,222.800 311.600 C 221.920 312.896,221.200 314.146,221.200 314.378 C 221.200 314.610,221.020 314.800,220.800 314.800 C 220.580 314.800,220.400 314.990,220.400 315.222 C 220.400 315.454,219.680 316.704,218.800 318.000 C 217.920 319.296,217.200 320.546,217.200 320.778 C 217.200 321.010,217.041 321.200,216.847 321.200 C 216.652 321.200,216.393 321.515,216.271 321.900 C 215.983 322.809,214.788 324.753,213.900 325.758 C 213.515 326.194,213.200 326.787,213.200 327.075 C 213.200 327.364,213.041 327.600,212.847 327.600 C 212.652 327.600,212.393 327.915,212.271 328.300 C 211.975 329.236,210.676 331.366,210.300 331.533 C 210.135 331.607,210.000 331.842,210.000 332.055 C 210.000 332.269,209.280 333.504,208.400 334.800 C 207.520 336.096,206.800 337.346,206.800 337.578 C 206.800 337.810,206.641 338.000,206.447 338.000 C 206.252 338.000,205.993 338.315,205.871 338.700 C 205.583 339.609,204.388 341.553,203.500 342.558 C 203.115 342.994,202.800 343.587,202.800 343.875 C 202.800 344.164,202.620 344.400,202.400 344.400 C 202.180 344.400,202.000 344.584,202.000 344.809 C 202.000 345.033,201.524 345.937,200.942 346.817 L 199.883 348.416 198.559 346.449 C 196.774 343.799,195.215 341.152,194.936 340.300 C 194.810 339.915,194.548 339.600,194.353 339.600 C 194.159 339.600,194.000 339.364,194.000 339.075 C 194.000 338.787,193.685 338.194,193.300 337.758 C 192.412 336.753,191.217 334.809,190.929 333.900 C 190.807 333.515,190.548 333.200,190.353 333.200 C 190.159 333.200,190.000 332.964,190.000 332.675 C 190.000 332.387,189.640 331.764,189.200 331.292 C 188.760 330.820,188.400 330.328,188.400 330.199 C 188.400 330.070,187.500 328.630,186.400 327.000 C 185.300 325.370,184.400 323.925,184.400 323.790 C 184.400 323.655,183.899 322.792,183.288 321.872 C 182.676 320.952,181.926 319.705,181.620 319.100 C 181.315 318.495,180.915 318.000,180.732 318.000 C 180.550 318.000,180.400 317.810,180.400 317.578 C 180.400 317.346,179.680 316.096,178.800 314.800 C 177.920 313.504,177.200 312.254,177.200 312.022 C 177.200 311.790,177.020 311.600,176.800 311.600 C 176.580 311.600,176.400 311.358,176.400 311.062 C 176.400 310.766,176.040 310.198,175.600 309.800 C 175.160 309.402,174.800 308.916,174.800 308.720 C 174.800 308.524,173.900 307.030,172.800 305.400 C 171.700 303.770,170.800 302.325,170.800 302.190 C 170.800 302.055,170.260 301.159,169.600 300.200 C 168.940 299.241,168.400 298.297,168.400 298.103 C 168.400 297.909,168.085 297.394,167.700 296.958 C 166.812 295.953,165.617 294.009,165.329 293.100 C 165.207 292.715,164.948 292.400,164.753 292.400 C 164.559 292.400,164.400 292.164,164.400 291.875 C 164.400 291.587,164.040 290.964,163.600 290.492 C 163.160 290.020,162.800 289.523,162.800 289.389 C 162.800 289.254,162.299 288.392,161.688 287.472 C 161.076 286.552,160.326 285.305,160.020 284.700 C 159.715 284.095,159.315 283.600,159.132 283.600 C 158.950 283.600,158.800 283.410,158.800 283.178 C 158.800 282.946,158.080 281.696,157.200 280.400 C 156.320 279.104,155.600 277.854,155.600 277.622 C 155.600 277.390,155.420 277.200,155.200 277.200 C 154.980 277.200,154.800 276.964,154.800 276.675 C 154.800 276.387,154.485 275.794,154.100 275.358 C 153.212 274.353,152.017 272.409,151.729 271.500 C 151.607 271.115,151.348 270.800,151.153 270.800 C 150.959 270.800,150.800 270.607,150.800 270.372 C 150.800 270.137,150.260 269.159,149.600 268.200 C 148.940 267.241,148.400 266.297,148.400 266.103 C 148.400 265.909,148.085 265.394,147.700 264.958 C 146.812 263.953,145.617 262.009,145.329 261.100 C 145.207 260.715,144.948 260.400,144.753 260.400 C 144.559 260.400,144.400 260.207,144.400 259.972 C 144.400 259.737,143.860 258.759,143.200 257.800 C 142.540 256.841,142.000 255.897,142.000 255.703 C 142.000 255.509,141.685 254.994,141.300 254.558 C 140.412 253.553,139.217 251.609,138.929 250.700 C 138.807 250.315,138.548 250.000,138.353 250.000 C 138.159 250.000,138.000 249.812,138.000 249.582 C 138.000 249.352,137.100 247.830,136.000 246.200 C 134.900 244.570,134.000 243.125,134.000 242.990 C 134.000 242.855,133.499 241.992,132.888 241.072 C 132.276 240.152,131.526 238.905,131.220 238.300 C 130.915 237.695,130.515 237.200,130.332 237.200 C 130.150 237.200,130.000 237.007,130.000 236.772 C 130.000 236.537,129.499 235.592,128.888 234.672 C 128.276 233.752,127.526 232.505,127.220 231.900 C 126.915 231.295,126.515 230.800,126.332 230.800 C 126.150 230.800,126.000 230.607,126.000 230.372 C 126.000 230.137,125.460 229.159,124.800 228.200 C 124.140 227.241,123.600 226.291,123.600 226.090 C 123.600 225.889,123.240 225.398,122.800 225.000 C 122.360 224.602,122.000 224.114,122.000 223.916 C 122.000 223.718,121.280 222.496,120.400 221.200 C 119.520 219.904,118.800 218.654,118.800 218.422 C 118.800 218.190,118.620 218.000,118.400 218.000 C 118.180 218.000,118.000 217.764,118.000 217.475 C 118.000 217.187,117.685 216.594,117.300 216.158 C 116.412 215.153,115.217 213.209,114.929 212.300 C 114.807 211.915,114.548 211.600,114.353 211.600 C 114.159 211.600,114.000 211.364,114.000 211.075 C 114.000 210.787,113.640 210.164,113.200 209.692 C 112.760 209.220,112.400 208.723,112.400 208.589 C 112.400 208.454,111.860 207.559,111.200 206.600 C 110.540 205.641,110.000 204.691,110.000 204.490 C 110.000 204.289,109.640 203.798,109.200 203.400 C 108.760 203.002,108.400 202.514,108.400 202.316 C 108.400 202.118,107.680 200.896,106.800 199.600 C 105.920 198.304,105.200 197.054,105.200 196.822 C 105.200 196.590,105.020 196.400,104.800 196.400 C 104.580 196.400,104.396 196.175,104.391 195.900 C 104.386 195.625,104.030 194.950,103.600 194.400 C 103.170 193.850,102.814 193.265,102.809 193.101 C 102.804 192.936,146.405 192.756,199.700 192.700 C 252.995 192.644,296.735 192.554,296.900 192.499 C 297.065 192.445,297.200 192.503,297.200 192.628 " stroke="none" fill="#ceb502" fill-rule="evenodd"></path><path id="path4" d="" stroke="none" fill="#ffff00" fill-rule="evenodd"></path></g></svg>